<svg data-v-fde0c5aa="" xmlns="http://www.w3.org/2000/svg" viewBox="0 0 300 300" class="iconAbove"><!----><defs data-v-fde0c5aa=""><!----></defs><rect data-v-fde0c5aa="" fill="#231B6E" x="0" y="0" width="300px" height="300px" class="logo-background-square"></rect><defs data-v-fde0c5aa=""><!----></defs><g data-v-fde0c5aa="" id="dc950a23-656c-4f5e-aa1c-c8a531d60302" fill="#ffffff" transform="matrix(3.3032648687881894,0,0,3.3032648687881894,17.22525739995956,171.7506004718767)"><path d="M7.15 11.70L7.15 11.70Q7.32 12.08 7.32 12.56Q7.32 13.03 6.99 13.38Q6.66 13.72 6.19 13.72L6.19 13.72Q4.70 13.72 1.54 13.55L1.54 13.55Q1.29 13.54 1.09 13.39Q0.90 13.24 0.90 13.02L0.90 13.02Q0.90 12.28 1.02 10.51Q1.13 8.75 1.13 7.22Q1.13 5.68 0.84 3.70L0.84 3.70Q1.88 3.78 3.63 3.78Q5.38 3.78 6.97 3.53L6.97 3.53Q7.14 3.84 7.14 4.26Q7.14 4.69 6.81 5.02Q6.48 5.35 6.00 5.35Q5.52 5.35 4.46 5.21Q3.40 5.07 2.90 5.07L2.90 5.07Q2.79 6.48 2.77 7.73L2.77 7.73Q3.65 7.81 4.67 7.81Q5.68 7.81 6.41 7.52L6.41 7.52Q6.58 7.83 6.58 8.25Q6.58 8.68 6.25 9.02Q5.92 9.37 5.47 9.37Q5.01 9.37 4.12 9.19Q3.22 9.02 2.76 9.02L2.76 9.02Q2.76 11.23 2.86 12.26L2.86 12.26Q3.53 12.32 3.91 12.32L3.91 12.32Q5.75 12.32 7.15 11.70ZM19.17 7.98L19.17 7.98L19.03 10.98Q19.03 12.33 19.42 13.55L19.42 13.55Q19.03 13.72 18.52 13.72L18.52 13.72Q17.33 13.72 17.33 12.39L17.33 12.39Q17.33 11.79 17.49 10.37Q17.64 8.95 17.64 8.58L17.64 8.58Q17.64 7.88 17.07 7.88L17.07 7.88Q16.44 7.88 15.56 9.17Q14.69 10.46 14.69 11.19L14.69 11.19Q14.76 12.29 15.08 13.38L15.08 13.38Q14.55 13.55 14.18 13.55L14.18 13.55Q12.99 13.55 12.99 12.22L12.99 12.22Q12.99 11.66 13.15 10.35Q13.30 9.03 13.30 8.69L13.30 8.69Q13.30 7.99 12.67 7.99L12.67 7.99Q12.24 7.99 11.68 8.64Q11.12 9.28 10.73 10.06Q10.35 10.84 10.32 11.30L10.32 11.30Q10.39 12.50 10.60 13.47L10.60 13.47Q10.15 13.64 9.67 13.64Q9.18 13.64 8.88 13.41Q8.58 13.17 8.58 12.76Q8.58 12.35 8.71 11.28Q8.83 10.21 8.83 9.15Q8.83 8.09 8.51 6.72L8.51 6.72Q8.96 6.55 9.46 6.55Q9.97 6.55 10.28 6.85Q10.60 7.14 10.60 7.63L10.60 7.63Q10.60 7.88 10.50 8.86L10.50 8.86Q11.02 7.94 11.82 7.26Q12.61 6.58 13.41 6.58L13.41 6.58Q14.83 6.58 14.83 8.09L14.83 8.09Q14.83 8.47 14.78 8.93L14.78 8.93Q15.30 7.95 16.12 7.21Q16.94 6.47 17.75 6.47L17.75 6.47Q19.17 6.47 19.17 7.98ZM22.65 12.26L22.65 12.26Q23.23 12.47 23.98 12.47Q24.74 12.47 25.31 12.18L25.31 12.18Q26.00 11.00 26.00 9.36Q26.00 7.71 25.42 7.71L25.42 7.71Q24.71 7.71 23.82 9.16Q22.93 10.60 22.65 12.26ZM22.65 9.39L22.65 9.39Q24.14 6.47 25.94 6.47L25.94 6.47Q26.89 6.47 27.31 7.25Q27.72 8.02 27.72 9.21L27.72 9.21Q27.72 10.92 26.71 12.32Q25.70 13.72 24.18 13.72L24.18 13.72Q23.31 13.72 22.60 13.44L22.60 13.44Q22.62 15.36 22.83 16.95L22.83 16.95Q22.39 17.12 21.91 17.12Q21.43 17.12 21.13 16.81Q20.82 16.49 20.82 15.85Q20.82 15.20 20.99 13.65Q21.15 12.10 21.15 11.21L21.15 11.21Q21.15 8.30 20.85 6.72L20.85 6.72Q21.29 6.55 21.79 6.55Q22.29 6.55 22.56 6.84Q22.83 7.13 22.83 7.74Q22.83 8.34 22.65 9.39ZM29.02 3.30L29.02 3.30Q29.47 3.14 29.95 3.14Q30.42 3.14 30.74 3.45Q31.05 3.77 31.05 4.31Q31.05 4.84 30.91 6.46Q30.76 8.08 30.76 9.00L30.76 9.00Q30.76 11.28 31.08 13.47L31.08 13.47Q30.63 13.64 30.13 13.64L30.13 13.64Q29.05 13.64 29.05 12.59L29.05 12.59Q29.05 12.08 29.20 10.61Q29.36 9.13 29.36 8.23L29.36 8.23Q29.36 5.25 29.02 3.30ZM35.18 13.80Q33.64 13.80 32.91 12.90Q32.19 12.00 32.19 10.38Q32.19 8.76 33.15 7.57Q34.12 6.38 35.63 6.38L35.63 6.38Q38.74 6.38 38.74 9.88L38.74 9.88Q38.74 11.52 37.73 12.66Q36.72 13.80 35.18 13.80ZM34.17 7.92L34.17 7.92Q33.92 8.74 33.92 9.55Q33.92 10.36 33.98 10.81Q34.03 11.26 34.19 11.70L34.19 11.70Q34.51 12.61 35.45 12.61Q36.40 12.61 36.70 12.11Q37.00 11.61 37.00 10.56L37.00 10.56Q37.00 7.57 35.59 7.57L35.59 7.57Q34.78 7.57 34.17 7.92ZM40.00 11.31L40.00 11.31L40.14 9.30Q40.14 7.94 39.75 6.72L39.75 6.72Q40.14 6.55 40.71 6.55L40.71 6.55Q41.83 6.55 41.83 7.80L41.83 7.80Q41.83 8.36 41.68 9.38Q41.52 10.40 41.52 10.79Q41.52 11.17 41.54 11.35Q41.55 11.52 41.61 11.76L41.61 11.76Q41.69 12.24 42.16 12.24Q42.63 12.24 43.17 11.49Q43.71 10.74 44.04 9.83Q44.37 8.92 44.37 8.39L44.37 8.39Q44.30 7.28 44.13 6.72L44.13 6.72Q44.58 6.55 45.05 6.55Q45.51 6.55 45.83 6.85Q46.14 7.14 46.14 7.63L46.14 7.63Q46.14 15.27 43.34 16.80L43.34 16.80Q42.71 17.14 41.92 17.14Q41.12 17.14 40.52 16.72Q39.93 16.30 39.93 15.54L39.93 15.54Q39.93 15.04 40.31 14.69Q40.68 14.35 41.20 14.35L41.20 14.35Q41.31 14.35 41.48 14.38L41.48 14.38Q41.44 14.56 41.44 14.70L41.44 14.70Q41.44 15.93 42.29 15.93L42.29 15.93Q42.81 15.93 43.23 15.37Q43.65 14.81 43.90 14.00L43.90 14.00Q44.39 12.35 44.39 11.00L44.39 11.00Q43.97 12.14 43.25 12.83Q42.53 13.52 41.69 13.52L41.69 13.52Q40.00 13.52 40.00 11.31ZM58.27 7.98L58.27 7.98L58.13 10.98Q58.13 12.33 58.52 13.55L58.52 13.55Q58.13 13.72 57.62 13.72L57.62 13.72Q56.43 13.72 56.43 12.39L56.43 12.39Q56.43 11.79 56.59 10.37Q56.74 8.95 56.74 8.58L56.74 8.58Q56.74 7.88 56.17 7.88L56.17 7.88Q55.54 7.88 54.66 9.17Q53.79 10.46 53.79 11.19L53.79 11.19Q53.86 12.29 54.18 13.38L54.18 13.38Q53.65 13.55 53.28 13.55L53.28 13.55Q52.09 13.55 52.09 12.22L52.09 12.22Q52.09 11.66 52.25 10.35Q52.40 9.03 52.40 8.69L52.40 8.69Q52.40 7.99 51.77 7.99L51.77 7.99Q51.34 7.99 50.78 8.64Q50.22 9.28 49.83 10.06Q49.45 10.84 49.42 11.30L49.42 11.30Q49.49 12.50 49.70 13.47L49.70 13.47Q49.25 13.64 48.77 13.64Q48.29 13.64 47.98 13.41Q47.68 13.17 47.68 12.76Q47.68 12.35 47.81 11.28Q47.94 10.21 47.94 9.15Q47.94 8.09 47.61 6.72L47.61 6.72Q48.06 6.55 48.57 6.55Q49.07 6.55 49.38 6.85Q49.70 7.14 49.70 7.63L49.70 7.63Q49.70 7.88 49.60 8.86L49.60 8.86Q50.12 7.94 50.92 7.26Q51.72 6.58 52.51 6.58L52.51 6.58Q53.93 6.58 53.93 8.09L53.93 8.09Q53.93 8.47 53.89 8.93L53.89 8.93Q54.40 7.95 55.22 7.21Q56.04 6.47 56.85 6.47L56.85 6.47Q58.27 6.47 58.27 7.98ZM61.21 10.46L61.21 10.46Q61.21 11.47 61.53 12.05Q61.85 12.63 62.61 12.63Q63.36 12.63 63.79 12.12Q64.22 11.61 64.22 10.88L64.22 10.88Q64.69 10.88 65.04 11.12Q65.39 11.35 65.39 11.77L65.39 11.77Q65.39 12.64 64.47 13.22Q63.55 13.80 62.52 13.80L62.52 13.80Q60.93 13.80 60.21 12.94Q59.50 12.08 59.50 10.39Q59.50 8.69 60.46 7.54Q61.42 6.38 63.01 6.38L63.01 6.38Q64.11 6.38 64.77 6.88Q65.44 7.38 65.44 8.42Q65.44 9.46 64.49 9.99Q63.55 10.51 62.19 10.51L62.19 10.51Q61.71 10.51 61.21 10.46ZM61.22 9.35L61.22 9.35Q61.64 9.44 62.10 9.44L62.10 9.44Q63.11 9.44 63.80 9.06L63.80 9.06Q63.88 8.72 63.88 8.53L63.88 8.53Q63.88 8.04 63.53 7.78Q63.18 7.53 62.57 7.53Q61.96 7.53 61.47 7.92L61.47 7.92Q61.22 8.65 61.22 9.35ZM73.28 7.98L73.28 7.98L73.14 11.06Q73.14 12.33 73.53 13.55L73.53 13.55Q73.14 13.72 72.63 13.72L72.63 13.72Q71.44 13.72 71.44 12.39L71.44 12.39Q71.44 11.79 71.60 10.37Q71.75 8.95 71.75 8.58L71.75 8.58Q71.75 7.88 71.12 7.88L71.12 7.88Q70.66 7.88 70.08 8.55Q69.50 9.21 69.08 10.03Q68.67 10.85 68.60 11.38L68.60 11.38Q68.66 12.47 68.88 13.47L68.88 13.47Q68.43 13.64 67.95 13.64Q67.47 13.64 67.17 13.41Q66.86 13.17 66.86 12.76Q66.86 12.35 66.99 11.28Q67.12 10.21 67.12 9.15Q67.12 8.09 66.79 6.72L66.79 6.72Q67.24 6.55 67.75 6.55Q68.25 6.55 68.56 6.85Q68.88 7.14 68.88 7.57Q68.88 8.01 68.77 8.96L68.77 8.96Q69.30 7.97 70.15 7.22Q71.01 6.47 71.86 6.47L71.86 6.47Q73.28 6.47 73.28 7.98ZM75.50 4.49L75.50 4.49Q75.95 4.27 76.41 4.27Q76.87 4.27 77.16 4.56Q77.45 4.86 77.45 5.43Q77.45 6.01 77.38 6.73L77.38 6.73Q78.43 6.73 79.38 6.44L79.38 6.44Q79.55 6.72 79.55 7.09Q79.55 7.46 79.22 7.69Q78.89 7.92 78.55 7.92Q78.22 7.92 77.80 7.84Q77.38 7.76 77.25 7.74L77.25 7.74Q77.24 7.87 77.18 8.25Q77.11 8.62 77.07 8.90L77.07 8.90Q76.96 9.67 76.96 10.56L76.96 10.56Q76.96 12.47 78.20 12.47L78.20 12.47Q78.67 12.47 79.27 12.15L79.27 12.15Q79.45 12.42 79.45 12.84Q79.45 13.26 79.00 13.49Q78.54 13.72 77.91 13.72L77.91 13.72Q75.45 13.72 75.45 10.92L75.45 10.92Q75.45 10.51 75.57 9.45Q75.68 8.39 75.68 7.73L75.68 7.73Q75.01 7.77 74.61 7.97L74.61 7.97Q74.44 7.71 74.44 7.39Q74.44 7.06 74.68 6.84Q74.91 6.62 75.26 6.62Q75.61 6.62 75.73 6.64L75.73 6.64Q75.74 6.52 75.74 6.34L75.74 6.34Q75.74 5.29 75.50 4.49Z"></path></g><defs data-v-fde0c5aa=""><!----></defs><g data-v-fde0c5aa="" id="11db97af-aff7-4008-af7a-86320bf0d37a" stroke="none" fill="#1DC7DA" transform="matrix(2.890356563299737,0,0,2.890356563299737,103.75429498720422,71.63144248080631)"><path d="M9.571 20.464l8.064 4.47 8.065-4.47v-8.939l-8.065-4.469-8.064 4.469z"></path><path d="M32 0H0v32h32l-5.054-5.172H5.054V5.172h21.892z"></path></g><!----></svg>